<svg version="1.1" xmlns="http://www.w3.org/2000/svg" viewBox="0 0 407.56842041015625 306.91290283203125" width="407.56842041015625" height="306.91290283203125">
  <!-- svg-source:excalidraw -->
  
  <defs>
    <style class="style-fonts">
      @font-face {
        font-family: "Virgil";
        src: url("https://excalidraw.com/Virgil.woff2");
      }
      @font-face {
        font-family: "Cascadia";
        src: url("https://excalidraw.com/Cascadia.woff2");
      }
    </style>
    
  </defs>
  <rect x="0" y="0" width="407.56842041015625" height="306.91290283203125" fill="#ffffff"></rect><g stroke-linecap="round" transform="translate(10 10) rotate(0 193.78421020507812 143.45645141601562)"><path d="M32 0 C131.44 -1.99, 231.08 -2.15, 355.57 0 C373.71 -2.8, 390.13 10.64, 387.57 32 C387.94 97.6, 386.12 164.52, 387.57 254.91 C386.9 276.98, 375.31 286.01, 355.57 286.91 C271.76 290.72, 183.38 290.9, 32 286.91 C11.85 289.37, -2.42 272.95, 0 254.91 C-1.72 182.97, -1.86 109.95, 0 32 C3.37 10.32, 7.86 0.66, 32 0" stroke="none" stroke-width="0" fill="#6741d9"></path><path d="M32 0 C157.31 -1.36, 283.16 0.05, 355.57 0 M32 0 C147.93 2.43, 264.18 1.69, 355.57 0 M355.57 0 C377.53 -1.25, 387.54 9.73, 387.57 32 M355.57 0 C378.66 0.43, 386.76 9.64, 387.57 32 M387.57 32 C385.77 106.95, 386.62 178.93, 387.57 254.91 M387.57 32 C388.15 80.27, 387.61 129.31, 387.57 254.91 M387.57 254.91 C387.71 276.14, 377.45 287.7, 355.57 286.91 M387.57 254.91 C387.88 278.07, 375.34 285.58, 355.57 286.91 M355.57 286.91 C244.95 288.78, 132.83 288.46, 32 286.91 M355.57 286.91 C289.14 285.49, 223.84 285.77, 32 286.91 M32 286.91 C11.81 285.7, -1.88 274.96, 0 254.91 M32 286.91 C9.94 287.77, 2.06 276.68, 0 254.91 M0 254.91 C2.12 202.2, -0.17 148.17, 0 32 M0 254.91 C-0.55 208.8, 0.26 160.95, 0 32 M0 32 C1.94 9.98, 12.54 1.56, 32 0 M0 32 C-1.18 11.08, 12.81 -1.24, 32 0" stroke="#1971c2" stroke-width="4" fill="none"></path></g><g transform="translate(119.80502319335938 124.8253784179688) rotate(0 77.73469543457031 23.598663330078097)" stroke="none"><path fill="#ffffff" d="M -15.81,-2.12 Q -15.81,-2.12 -17.99,3.94 -20.16,10.01 -23.23,16.44 -26.30,22.86 -29.80,29.36 -33.29,35.86 -37.51,42.90 -41.73,49.95 -46.63,57.33 -51.53,64.71 -56.75,71.67 -61.97,78.62 -66.36,84.92 -70.75,91.22 -73.93,96.50 -77.11,101.79 -79.66,106.67 -82.21,111.56 -82.44,112.11 -82.67,112.67 -83.37,113.42 -84.06,114.17 -84.92,114.73 -85.77,115.29 -86.73,115.63 -87.70,115.97 -88.71,116.07 -89.73,116.17 -90.74,116.02 -91.75,115.87 -92.70,115.49 -93.65,115.11 -94.47,114.51 -95.30,113.91 -95.96,113.13 -96.62,112.35 -97.07,111.43 -97.53,110.52 -97.75,109.52 -97.97,108.52 -97.95,107.50 -97.92,106.48 -97.66,105.49 -97.39,104.51 -96.89,103.61 -96.40,102.72 -92.67,95.01 -88.94,87.31 -84.32,80.44 -79.71,73.57 -73.65,65.56 -67.59,57.54 -60.42,48.75 -53.26,39.96 -45.86,30.90 -38.45,21.85 -32.85,15.18 -27.24,8.51 -20.42,1.42 -13.60,-5.66 -7.31,-11.54 -1.02,-17.41 4.03,-22.08 9.08,-26.75 16.68,-29.18 24.28,-31.61 26.96,-27.04 29.65,-22.46 29.52,-15.36 29.38,-8.25 28.22,-3.09 27.06,2.06 24.69,8.42 22.32,14.79 18.38,21.91 14.45,29.03 10.08,36.06 5.71,43.08 1.91,49.64 -1.88,56.20 -4.79,61.66 -7.71,67.13 -9.64,71.84 -11.58,76.55 -11.66,77.12 -11.74,77.70 -12.35,78.65 -12.95,79.60 -13.77,80.38 -14.58,81.15 -15.56,81.71 -16.54,82.27 -17.62,82.58 -18.71,82.89 -19.83,82.94 -20.96,82.98 -22.06,82.75 -23.17,82.52 -24.18,82.03 -25.20,81.55 -26.07,80.83 -26.94,80.12 -27.62,79.21 -28.29,78.31 -28.73,77.27 -29.17,76.23 -29.35,75.12 -29.52,74.01 -29.43,72.88 -29.33,71.76 -28.97,70.69 -28.61,69.62 -25.47,65.03 -22.33,60.43 -19.82,56.93 -17.32,53.44 -11.68,48.07 -6.05,42.70 1.35,36.21 8.75,29.71 17.71,22.83 26.66,15.95 35.70,9.14 44.74,2.33 52.68,-3.26 60.62,-8.85 65.18,-12.65 69.73,-16.44 72.38,-19.02 75.04,-21.61 75.88,-22.11 76.72,-22.61 77.66,-22.90 78.60,-23.18 79.58,-23.23 80.56,-23.28 81.53,-23.10 82.49,-22.91 83.38,-22.50 84.27,-22.09 85.04,-21.48 85.81,-20.87 86.41,-20.09 87.01,-19.32 87.40,-18.42 87.80,-17.52 87.97,-16.55 88.14,-15.59 88.07,-14.61 88.00,-13.63 87.70,-12.69 87.41,-11.76 86.89,-10.92 86.38,-10.09 85.68,-9.40 84.98,-8.71 84.25,1.24 83.53,11.21 80.10,18.99 76.68,26.77 72.16,35.29 67.64,43.81 62.56,53.18 57.48,62.54 52.44,71.67 47.41,80.79 43.09,88.78 38.76,96.77 35.69,103.13 32.61,109.48 30.96,115.06 29.31,120.64 29.19,121.40 29.07,122.16 28.56,123.00 28.04,123.83 27.34,124.52 26.64,125.20 25.80,125.70 24.95,126.20 24.01,126.49 23.07,126.77 22.09,126.82 21.11,126.87 20.15,126.68 19.19,126.50 18.30,126.08 17.40,125.67 16.64,125.06 15.87,124.45 15.27,123.67 14.68,122.89 14.28,121.99 13.89,121.09 13.72,120.13 13.55,119.16 13.62,118.18 13.69,117.20 13.99,116.27 14.29,115.33 18.11,111.78 21.93,108.23 25.84,103.52 29.74,98.81 36.22,91.47 42.70,84.14 52.63,73.72 62.56,63.31 75.20,51.45 87.84,39.60 104.12,26.59 120.41,13.58 137.66,1.42 154.92,-10.74 166.77,-18.78 178.62,-26.83 190.31,-34.99 202.01,-43.14 211.01,-50.17 220.02,-57.20 226.35,-62.75 232.68,-68.29 237.19,-72.77 241.69,-77.24 242.54,-77.77 243.39,-78.30 244.36,-78.54 245.34,-78.77 246.34,-78.68 247.34,-78.59 248.25,-78.19 249.17,-77.79 249.91,-77.11 250.65,-76.43 251.14,-75.56 251.62,-74.68 251.80,-73.70 251.99,-72.71 251.84,-71.72 251.70,-70.73 251.25,-69.83 250.79,-68.94 250.08,-68.23 249.36,-67.53 248.46,-67.09 247.56,-66.66 246.57,-66.53 245.57,-66.40 244.59,-66.60 243.61,-66.80 242.74,-67.30 241.87,-67.80 241.21,-68.55 240.54,-69.30 240.16,-70.22 239.77,-71.15 239.69,-72.15 239.62,-73.15 239.87,-74.12 240.12,-75.09 240.67,-75.93 241.21,-76.77 242.00,-77.39 242.79,-78.01 243.73,-78.35 244.67,-78.69 245.68,-78.71 246.68,-78.72 247.63,-78.42 248.59,-78.12 249.40,-77.53 250.21,-76.94 250.79,-76.12 251.36,-75.30 251.65,-74.34 251.94,-73.38 251.90,-72.38 251.87,-71.37 251.51,-70.44 251.16,-69.50 250.52,-68.72 249.89,-67.95 249.89,-67.95 249.89,-67.95 244.89,-64.04 239.90,-60.12 233.37,-54.32 226.85,-48.52 217.67,-41.23 208.49,-33.95 196.83,-25.64 185.16,-17.34 173.50,-9.19 161.85,-1.04 145.05,11.10 128.25,23.24 112.61,36.16 96.98,49.08 85.00,60.96 73.02,72.85 63.90,83.35 54.77,93.85 48.92,101.84 43.06,109.83 36.07,116.00 29.08,122.16 28.56,123.00 28.04,123.83 27.34,124.52 26.64,125.20 25.80,125.70 24.95,126.20 24.01,126.49 23.07,126.77 22.09,126.82 21.11,126.87 20.15,126.68 19.19,126.50 18.30,126.09 17.41,125.67 16.64,125.06 15.87,124.45 15.27,123.67 14.68,122.89 14.28,121.99 13.89,121.09 13.72,120.13 13.55,119.16 13.62,118.18 13.69,117.20 13.99,116.27 14.29,115.33 15.60,113.26 16.90,111.18 18.98,107.34 21.06,103.51 24.48,97.32 27.89,91.14 31.94,82.97 35.99,74.80 40.59,65.56 45.18,56.32 49.65,46.83 54.12,37.34 57.69,28.96 61.26,20.58 63.71,13.71 66.16,6.85 69.11,-3.25 72.06,-13.35 73.55,-17.48 75.03,-21.61 75.88,-22.11 76.72,-22.61 77.66,-22.90 78.60,-23.18 79.58,-23.23 80.56,-23.28 81.53,-23.10 82.49,-22.91 83.38,-22.50 84.27,-22.09 85.04,-21.48 85.81,-20.87 86.41,-20.09 87.01,-19.32 87.40,-18.42 87.80,-17.52 87.97,-16.55 88.14,-15.59 88.07,-14.61 88.00,-13.63 87.71,-12.69 87.41,-11.76 86.89,-10.92 86.38,-10.09 85.68,-9.40 84.98,-8.71 81.61,-6.89 78.23,-5.07 73.28,-1.75 68.33,1.56 60.86,7.36 53.39,13.17 44.84,20.39 36.29,27.60 28.39,34.64 20.50,41.69 14.00,48.85 7.50,56.01 3.00,60.95 -1.48,65.90 -6.61,71.80 -11.74,77.69 -12.35,78.65 -12.95,79.60 -13.77,80.37 -14.58,81.15 -15.56,81.71 -16.54,82.27 -17.62,82.58 -18.71,82.89 -19.83,82.94 -20.96,82.98 -22.06,82.75 -23.17,82.52 -24.18,82.03 -25.20,81.55 -26.07,80.83 -26.94,80.12 -27.62,79.21 -28.29,78.31 -28.73,77.27 -29.17,76.23 -29.35,75.12 -29.52,74.01 -29.43,72.88 -29.33,71.76 -28.97,70.69 -28.61,69.63 -28.40,69.14 -28.18,68.66 -25.05,63.90 -21.93,59.14 -18.81,53.87 -15.69,48.60 -12.15,41.82 -8.61,35.04 -5.07,27.97 -1.53,20.89 1.37,14.56 4.28,8.24 6.23,2.69 8.17,-2.85 9.42,-6.97 10.67,-11.09 13.97,-14.09 17.27,-17.10 12.08,-13.08 6.90,-9.07 0.94,-3.32 -5.00,2.42 -11.35,9.33 -17.69,16.24 -22.98,23.04 -28.27,29.85 -35.28,39.13 -42.29,48.42 -48.74,57.29 -55.19,66.16 -60.28,74.19 -65.36,82.23 -69.12,89.24 -72.88,96.26 -77.78,104.46 -82.67,112.67 -83.37,113.42 -84.06,114.16 -84.92,114.73 -85.77,115.29 -86.73,115.63 -87.70,115.97 -88.71,116.07 -89.73,116.17 -90.74,116.02 -91.75,115.87 -92.70,115.49 -93.65,115.11 -94.47,114.51 -95.30,113.91 -95.96,113.13 -96.62,112.35 -97.07,111.43 -97.53,110.52 -97.75,109.52 -97.97,108.52 -97.95,107.50 -97.92,106.48 -97.66,105.49 -97.39,104.51 -96.89,103.61 -96.40,102.72 -96.01,102.28 -95.62,101.84 -92.24,97.92 -88.85,94.00 -85.13,88.87 -81.40,83.74 -76.94,77.43 -72.47,71.11 -67.85,64.30 -63.23,57.48 -59.01,50.08 -54.79,42.68 -51.13,35.56 -47.46,28.43 -44.24,22.09 -41.01,15.76 -38.21,10.03 -35.40,4.31 -33.07,-1.68 -30.74,-7.69 -30.30,-8.54 -29.86,-9.39 -29.22,-10.12 -28.59,-10.84 -27.80,-11.39 -27.02,-11.94 -26.12,-12.28 -25.22,-12.63 -24.27,-12.75 -23.32,-12.87 -22.36,-12.76 -21.41,-12.65 -20.51,-12.31 -19.61,-11.98 -18.82,-11.43 -18.02,-10.89 -17.38,-10.18 -16.74,-9.46 -16.29,-8.61 -15.84,-7.77 -15.61,-6.84 -15.37,-5.90 -15.37,-4.94 -15.36,-3.98 -15.59,-3.05 -15.81,-2.12 -15.81,-2.12 L -15.81,-2.12 Z"></path></g></svg>